# xmcd
#
# Track frame offsets:
#	150
#	18857
#	38592
#
# Disc length: 662 seconds
#
# Revision: 0
# Processed by: cddbd v1.5.1PL0 Copyright (c) Steve Scherf et al.
# Submitted via: audiograbber 1.83.01
#
DISCID=14029403
DTITLE=Black Sorrows - Black Sorrows
DYEAR=1900
DGENRE=Country
TTITLE0=Come On Come On
TTITLE1=El Salvador
TTITLE2=Oh Darlin
EXTD=
EXTT0=
EXTT1=
EXTT2=
PLAYORDER=
